<svg xmlns="http://www.w3.org/2000/svg" width="45" height="34.145" viewBox="0 0 45 34.145">
  <g id="_4" data-name="4" transform="translate(9 1.121)">
    <g id="bill" transform="translate(-9 -1.121)" opacity="0.249">
      <g id="Group_55022" data-name="Group 55022" transform="translate(0 0)">
        <g id="Group_54980" data-name="Group 54980">
          <path id="Path_33090" data-name="Path 33090" d="M39.155,21.823c-5.433-4.177-10.7-.773-16.58-1.976C16.655,18.635,14.3,14.6,7.554,16.462c-5.973,1.65-9.6,8.268-6.314,13.807.936,1.579,2.53,2.77,3.181,4.536,1.051,2.849-.549,5.037-.237,7.837,1.3,11.635,19.066,7.128,25.6,3.508C40.043,40.474,46.98,27.839,39.155,21.823Z" transform="translate(0 -15.978)" fill="rgba(115,117,210,0.66)"/>
        </g>
      </g>
      <g id="Group_55023" data-name="Group 55023">
        <g id="Group_54980-2" data-name="Group 54980">
          <path id="Path_33090-2" data-name="Path 33090" d="M39.155,21.823c-5.433-4.177-10.7-.773-16.58-1.976C16.655,18.635,14.3,14.6,7.554,16.462c-5.973,1.65-9.6,8.268-6.314,13.807.936,1.579,2.53,2.77,3.181,4.536,1.051,2.849-.549,5.037-.237,7.837,1.3,11.635,19.066,7.128,25.6,3.508C40.043,40.474,46.98,27.839,39.155,21.823Z" transform="translate(0 -15.978)" fill="rgba(115,117,210,0.66)"/>
        </g>
      </g>
    </g>
    <rect id="Rectangle_768" data-name="Rectangle 768" width="33" height="20" transform="translate(3 1.894)" fill="#fff"/>
    <line id="Line_129" data-name="Line 129" x2="6.043" transform="translate(8.49 16.605)" fill="none" stroke="#37388f" stroke-linecap="round" stroke-linejoin="round" stroke-miterlimit="10" stroke-width="2"/>
    <line id="Line_128" data-name="Line 128" x2="29.007" transform="translate(3.086 11.551)" fill="none" stroke="#37388f" stroke-linecap="round" stroke-linejoin="round" stroke-miterlimit="10" stroke-width="2"/>
    <rect id="Rectangle_747" data-name="Rectangle 747" width="10" height="8" transform="translate(20 20.894)" fill="none" stroke="#39d5ad" stroke-linecap="round" stroke-linejoin="round" stroke-miterlimit="10" stroke-width="2"/>
    <line id="Line_127" data-name="Line 127" x2="29" transform="translate(3 5.894)" fill="none" stroke="#37388f" stroke-linecap="round" stroke-linejoin="round" stroke-miterlimit="10" stroke-width="2"/>
    <path id="Path_32990" data-name="Path 32990" d="M11.548,21.547H3.637A2.6,2.6,0,0,1,1,18.978V3.568A2.6,2.6,0,0,1,3.637,1H27.37a2.6,2.6,0,0,1,2.637,2.568V16.41" transform="translate(2.086 0.443)" fill="none" stroke="#37388f" stroke-linecap="round" stroke-linejoin="round" stroke-miterlimit="10" stroke-width="2"/>
    <path id="Path_32991" data-name="Path 32991" d="M15,16.835V14.417A2.424,2.424,0,0,1,17.417,12h0a2.424,2.424,0,0,1,2.417,2.417v2.417" transform="translate(6.887 3.476)" fill="none" stroke="#39d5ad" stroke-linecap="round" stroke-linejoin="round" stroke-miterlimit="10" stroke-width="2"/>
    <line id="Line_130" data-name="Line 130" y2="1.209" transform="translate(24.182 24.407)" fill="none" stroke="#39d5ad" stroke-linecap="round" stroke-linejoin="round" stroke-miterlimit="10" stroke-width="2"/>
  </g>
</svg>
