<svg xmlns="http://www.w3.org/2000/svg" width="56" height="38.875" viewBox="0 0 56 38.875">
  <g id="_7" data-name="7" transform="translate(7 -0.165)">
    <g id="bill" transform="translate(-7 0.165)" opacity="0.249">
      <g id="Group_55022" data-name="Group 55022">
        <g id="Group_54980" data-name="Group 54980">
          <path id="Path_33090" data-name="Path 33090" d="M43.3,22.442c-6.007-4.618-11.834-.855-18.333-2.185-6.546-1.34-9.154-5.8-16.61-3.744-6.6,1.825-10.612,9.142-6.981,15.268,1.035,1.746,2.8,3.063,3.518,5.016,1.162,3.151-.607,5.57-.262,8.666,1.434,12.866,21.082,7.882,28.312,3.879C44.278,43.064,51.948,29.093,43.3,22.442Z" transform="translate(0 -15.978)" fill="rgba(115,117,210,0.66)"/>
        </g>
      </g>
    </g>
    <rect id="Rectangle_775" data-name="Rectangle 775" width="40" height="35" transform="translate(9 1.041)" fill="#fff"/>
    <line id="Line_121" data-name="Line 121" x2="1.589" transform="translate(36.84 25.857)" fill="none" stroke="#39d5ad" stroke-linecap="round" stroke-linejoin="round" stroke-miterlimit="10" stroke-width="2"/>
    <circle id="Ellipse_812" data-name="Ellipse 812" cx="4.767" cy="4.767" r="4.767" transform="translate(23.193 8.695)" fill="none" stroke="#39d5ad" stroke-linecap="round" stroke-linejoin="round" stroke-miterlimit="10" stroke-width="2"/>
    <path id="Path_32983" data-name="Path 32983" d="M3,1H41.138V37.549l-6.356-3.48-6.356,3.48-6.356-3.48-6.356,3.48-6.356-3.48L3,37.549Z" transform="translate(5.891 0.492)" fill="none" stroke="#37388f" stroke-linecap="round" stroke-linejoin="round" stroke-miterlimit="10" stroke-width="2"/>
    <line id="Line_120" data-name="Line 120" x2="7.945" transform="translate(18.18 25.857)" fill="none" stroke="#39d5ad" stroke-linecap="round" stroke-linejoin="round" stroke-miterlimit="10" stroke-width="2"/>
  </g>
</svg>
