<svg xmlns="http://www.w3.org/2000/svg" width="53.237" height="42.414" viewBox="0 0 53.237 42.414">
  <g id="_9" data-name="9" transform="translate(8)">
    <g id="bill" transform="translate(-8 6.165)" opacity="0.249">
      <g id="Group_55022" data-name="Group 55022" transform="translate(0 0)">
        <g id="Group_54980" data-name="Group 54980">
          <path id="Path_33090" data-name="Path 33090" d="M42.251,22.183c-2.8-2.119-8.812-2.23-8.812-2.23s-5.768.8-9.078.132c-6.388-1.287-8.933-5.572-16.209-3.594C1.706,18.244-2.2,25.268,1.338,31.149c1.01,1.676,2.73,2.94,3.433,4.815,1.134,3.025-.592,5.347-.255,8.32,1.4,12.352,20.573,7.567,27.628,3.724C43.209,41.983,50.694,28.57,42.251,22.183Z" transform="translate(0 -15.978)" fill="rgba(115,117,210,0.66)"/>
        </g>
      </g>
    </g>
    <rect id="Rectangle_774" data-name="Rectangle 774" width="36" height="26" transform="translate(7.237 11.964)" fill="#fff"/>
    <rect id="Rectangle_746" data-name="Rectangle 746" width="38" height="27" transform="translate(6.237 10.964)" fill="none" stroke="#37388f" stroke-linecap="round" stroke-linejoin="round" stroke-miterlimit="10" stroke-width="2"/>
    <path id="Path_33097" data-name="Path 33097" d="M4.8,0A4.8,4.8,0,1,1,0,4.8,4.8,4.8,0,0,1,4.8,0Z" transform="translate(20.8 19.7)" fill="none" stroke="#39d5ad" stroke-linecap="round" stroke-width="2"/>
    <line id="Line_118" data-name="Line 118" x2="29" transform="translate(11.237 4.964)" fill="none" stroke="#37388f" stroke-linecap="round" stroke-linejoin="round" stroke-miterlimit="10" stroke-width="2"/>
    <path id="Path_33096" data-name="Path 33096" d="M0,0H12.8" transform="translate(19.2 1)" fill="none" stroke="#39d5ad" stroke-linecap="round" stroke-width="2"/>
  </g>
</svg>
