<svg xmlns="http://www.w3.org/2000/svg" width="59.942" height="52.433" viewBox="0 0 59.942 52.433">
  <g id="icon-6" transform="translate(15.754 5.164)">
    <g id="bill" transform="matrix(0.934, 0.358, -0.358, 0.934, -2.136, -5.164)" opacity="0.249">
      <g id="Group_55022" data-name="Group 55022" transform="translate(0 0)">
        <g id="Group_54980" data-name="Group 54980" transform="translate(0 0)">
          <path id="Path_33090" data-name="Path 33090" d="M43.574,6.505c-6.044-4.648-11.91-.86-18.451-2.2C18.535,2.957,15.91-1.535,8.407.538,1.76,2.375-2.274,9.739,1.38,15.9c1.042,1.76,2.817,3.086,3.54,5.051,1.169,3.171-.61,5.606-.264,8.722,1.443,12.948,21.218,7.933,28.493,3.9C44.562,27.26,52.282,13.2,43.574,6.505Z" fill="rgba(115,117,210,0.66)"/>
        </g>
      </g>
    </g>
    <rect id="Rectangle_777" data-name="Rectangle 777" width="28" height="28" rx="4" transform="translate(14 7)" fill="#fff"/>
    <rect id="Rectangle_778" data-name="Rectangle 778" width="29" height="9" rx="4.5" transform="translate(9 25)" fill="#fff"/>
    <path id="Path_33038" data-name="Path 33038" d="M31.3,18.233v-5.17a12.063,12.063,0,1,0-24.126,0v5.17C7.17,23.92,2,25.3,2,28.573c0,2.93,6.721,5.17,17.233,5.17s17.233-2.24,17.233-5.17C36.466,25.3,31.3,23.92,31.3,18.233Z" transform="translate(6.722 2.334)" fill="none" stroke="#37388f" stroke-linecap="round" stroke-linejoin="round" stroke-miterlimit="10" stroke-width="2"/>
    <path id="Path_33039" data-name="Path 33039" d="M14.065,22.072c-1.742,0-3.379-.059-4.92-.172a5.156,5.156,0,0,0,9.84,0C17.445,22.014,15.807,22.072,14.065,22.072Z" transform="translate(11.89 17.451)" fill="#39dca5"/>
  </g>
</svg>
