<svg xmlns="http://www.w3.org/2000/svg" width="66.386" height="48.04" viewBox="0 0 66.386 48.04">
  <g id="icon-9" transform="translate(15.543 5.278)">
    <g id="bill" transform="matrix(0.934, 0.358, -0.358, 0.934, -3.067, -5.278)" opacity="0.249">
      <g id="Group_55022" data-name="Group 55022" transform="translate(0 0)">
        <g id="Group_54980" data-name="Group 54980">
          <path id="Path_33090" data-name="Path 33090" d="M39.923,5.96c-5.538-4.259-10.912-.788-16.9-2.015C16.982,2.709,14.577-1.407,7.7.493c-6.09,1.683-9.786,8.43-6.438,14.075C2.219,16.181,3.846,17.4,4.508,19.2c1.071,2.905-.559,5.136-.242,7.991,1.322,11.863,19.44,7.268,26.106,3.577C40.828,24.976,47.9,12.092,39.923,5.96Z" fill="rgba(115,117,210,0.66)"/>
        </g>
      </g>
    </g>
    <rect id="Rectangle_782" data-name="Rectangle 782" width="34" height="35" transform="translate(11 4)" fill="#fff"/>
    <path id="Path_33048" data-name="Path 33048" d="M26.038,19.681a1.2,1.2,0,0,0-.668.134v-.134a6.681,6.681,0,1,0-13.362,0v.134c-.267,0-.4-.134-.668-.134a3.34,3.34,0,1,0,0,6.681h14.7a3.34,3.34,0,1,0,0-6.681Z" transform="translate(11.111 5.718)" fill="none" stroke="#39dca5" stroke-linecap="round" stroke-linejoin="round" stroke-miterlimit="10" stroke-width="2"/>
    <path id="Path_33049" data-name="Path 33049" d="M37.077,38.077H5.009A4.009,4.009,0,0,1,1,34.068V2H15.7l4.009,6.681H41.085V34.068A4.009,4.009,0,0,1,37.077,38.077Z" transform="translate(8.758 2.02)" fill="none" stroke="#37388f" stroke-linecap="round" stroke-linejoin="round" stroke-miterlimit="10" stroke-width="2"/>
  </g>
</svg>
