<svg xmlns="http://www.w3.org/2000/svg" width="67.026" height="49.402" viewBox="0 0 67.026 49.402">
  <g id="icon-13" transform="translate(16.544 3.823)">
    <g id="bill" transform="matrix(0.934, 0.358, -0.358, 0.934, -3.713, -3.823)" opacity="0.249">
      <g id="Group_55022" data-name="Group 55022" transform="translate(0 0)">
        <g id="Group_54980" data-name="Group 54980">
          <path id="Path_33090" data-name="Path 33090" d="M41.055,6.129C35.36,1.75,29.834,5.318,23.671,4.057c-6.207-1.271-8.681-5.5-15.75-3.55C1.658,2.238-2.142,9.176,1.3,14.981c.982,1.659,2.654,2.908,3.335,4.759,1.1,2.987-.575,5.282-.248,8.218,1.36,12.2,19.991,7.474,26.846,3.679C41.986,25.684,49.259,12.435,41.055,6.129Z" fill="rgba(115,117,210,0.66)"/>
        </g>
      </g>
    </g>
    <rect id="Rectangle_785" data-name="Rectangle 785" width="29" height="36" transform="translate(15 8)" fill="#fff"/>
    <path id="Path_33040" data-name="Path 33040" d="M19.278,6H31.269L27.843,16.278l3.426,10.278H9" transform="translate(18.213 7.004)" fill="none" stroke="#39dca5" stroke-linecap="round" stroke-linejoin="round" stroke-miterlimit="10" stroke-width="2"/>
    <path id="Path_33041" data-name="Path 33041" d="M2,2H24.269V22.556H2" transform="translate(13.222 4.152)" fill="none" stroke="#37388f" stroke-linecap="round" stroke-linejoin="round" stroke-miterlimit="10" stroke-width="2"/>
    <line id="Line_148" data-name="Line 148" y2="38" transform="translate(15 4)" fill="none" stroke="#37388f" stroke-linecap="round" stroke-linejoin="round" stroke-miterlimit="10" stroke-width="2"/>
  </g>
</svg>
