<svg xmlns="http://www.w3.org/2000/svg" width="82.863" height="81.974" viewBox="0 0 82.863 81.974">
  <g id="icon-3_" data-name="icon-3\" transform="translate(22.034 14)">
    <g id="bill" transform="matrix(0.934, 0.358, -0.358, 0.934, -4.408, 0.109)" opacity="0.249">
      <g id="Group_55022" data-name="Group 55022" transform="translate(0 0)">
        <g id="Group_54980" data-name="Group 54980">
          <path id="Path_33090" data-name="Path 33090" d="M56.4,8.42C48.576,2.4,40.984,7.306,32.517,5.573,23.99,3.827,20.593-1.987,10.881.7,2.278,3.074-2.943,12.605,1.787,20.58c1.348,2.278,3.646,3.994,4.582,6.538,1.514,4.1-.79,7.256-.341,11.289C7.9,55.166,33.49,48.675,42.907,43.461,57.678,35.284,67.669,17.083,56.4,8.42Z" fill="rgba(115,117,210,0.66)"/>
        </g>
      </g>
    </g>
    <rect id="Rectangle_768" data-name="Rectangle 768" width="41" height="26" rx="3" transform="translate(7.431 4)" fill="#fff"/>
    <rect id="Rectangle_776" data-name="Rectangle 776" width="7" height="6" rx="3" transform="translate(10.431 27)" fill="#fff"/>
    <rect id="Rectangle_769" data-name="Rectangle 769" width="25" height="24" transform="translate(31.431 25)" fill="#fff"/>
    <path id="Path_33062" data-name="Path 33062" d="M29.458,13.45V4.557A3.557,3.557,0,0,0,25.9,1H4.557A3.557,3.557,0,0,0,1,4.557V24.122a3.557,3.557,0,0,0,3.557,3.557H6.336v4.744l7.114-4.744h5.336" transform="translate(5.471 2.818)" fill="none" stroke="#37388f" stroke-linecap="round" stroke-linejoin="round" stroke-miterlimit="10" stroke-width="2"/>
    <path id="Path_33063" data-name="Path 33063" d="M15,35.122V15.557A3.557,3.557,0,0,1,18.557,12H39.9a3.557,3.557,0,0,1,3.557,3.557V35.122A3.557,3.557,0,0,1,39.9,38.679H38.122v4.744l-7.114-4.744H18.557A3.557,3.557,0,0,1,15,35.122Z" transform="translate(16.371 11.383)" fill="none" stroke="#37388f" stroke-linecap="round" stroke-linejoin="round" stroke-miterlimit="10" stroke-width="2"/>
    <path id="Path_33064" data-name="Path 33064" d="M29.638,30.7l-.756-2.846H23.937l-.77,2.846H18.644l4.969-15.3h5.492l5.033,15.3Zm-1.6-6.225-.656-2.5q-.229-.834-.558-2.157t-.43-1.9q-.094.534-.37,1.75t-1.231,4.811Z" transform="translate(19.209 14.03)" fill="#39dca5"/>
    <text id="ع" transform="translate(24.431 18)" fill="#39dca5" stroke="rgba(0,0,0,0)" stroke-width="1" font-size="21" font-family="SSTArabic-Bold, SST Arabic" font-weight="700"><tspan x="-11.004" y="0">ع</tspan></text>
  </g>
</svg>
