<svg xmlns="http://www.w3.org/2000/svg" width="105.902" height="84.241" viewBox="0 0 105.902 84.241">
  <g id="icon-11" transform="translate(14.304 4.057)">
    <g id="bill" transform="matrix(0.934, 0.358, -0.358, 0.934, 7.636, -4.057)" opacity="0.249">
      <g id="Group_55022" data-name="Group 55022" transform="translate(0 0)">
        <g id="Group_54980" data-name="Group 54980" transform="translate(0 0)">
          <path id="Path_33090" data-name="Path 33090" d="M69.514,10.83c-9.7-7.552-19.023-1.52-29.481-3.75C29.5,4.834,25.257-2.428,13.3.825,2.712,3.707-3.644,15.516,2.26,25.477c1.683,2.846,4.533,5,5.709,8.172,1.9,5.118-.91,9.018-.321,14.039C10.1,68.549,41.613,60.7,53.182,54.3,71.329,44.255,83.493,21.7,69.514,10.83Z" fill="rgba(115,117,210,0.66)"/>
        </g>
      </g>
    </g>
    <ellipse id="Ellipse_833" data-name="Ellipse 833" cx="14" cy="13" rx="14" ry="13" transform="matrix(1, 0.017, -0.017, 1, 35.22, 9.818)" fill="#fff"/>
    <rect id="Rectangle_784" data-name="Rectangle 784" width="63" height="29" rx="13" transform="translate(18 47.042)" fill="#fff"/>
    <ellipse id="Oval" cx="14.53" cy="14.208" rx="14.53" ry="14.208" transform="translate(34.65 8.348)" fill="none" stroke="#37388f" stroke-linecap="round" stroke-linejoin="round" stroke-miterlimit="10" stroke-width="2.5"/>
    <path id="Shape" d="M58.123,21.312v-7.1A14.371,14.371,0,0,0,43.593,0H14.53A14.371,14.371,0,0,0,0,14.208v7.1" transform="translate(18.135 46.499)" fill="none" stroke="#37388f" stroke-linecap="round" stroke-linejoin="round" stroke-miterlimit="10" stroke-width="2.5"/>
    <ellipse id="Oval-2" data-name="Oval" cx="8.043" cy="7.72" rx="8.043" ry="7.72" transform="translate(41.2 13.383)" fill="#39dca5"/>
    <path id="Shape-2" data-name="Shape" d="M10.9,20.851V13.745A14.272,14.272,0,0,0,0,0" transform="translate(79.451 46.954)" fill="none" stroke="#37388f" stroke-linecap="round" stroke-linejoin="round" stroke-miterlimit="10" stroke-width="2.5"/>
    <path id="Shape-3" data-name="Shape" d="M0,0A14.272,14.272,0,0,1,10.927,13.763,14.272,14.272,0,0,1,0,27.528" transform="translate(65.563 8.811)" fill="none" stroke="#37388f" stroke-linecap="round" stroke-linejoin="round" stroke-miterlimit="10" stroke-width="2.5"/>
  </g>
</svg>
