<svg xmlns="http://www.w3.org/2000/svg" width="55.913" height="50.727" viewBox="0 0 55.913 50.727">
  <g id="icon-10" transform="translate(16.043 5.501)">
    <g id="bill" transform="matrix(0.934, 0.358, -0.358, 0.934, -2.869, -5.501)" opacity="0.249">
      <g id="Group_55022" data-name="Group 55022" transform="translate(0)">
        <g id="Group_54980" data-name="Group 54980" transform="translate(0 0)">
          <path id="Path_33090" data-name="Path 33090" d="M42.156,6.294c-5.848-4.5-11.522-.832-17.85-2.128C17.932,2.861,15.392-1.485,8.133.521,1.7,2.3-2.2,9.422,1.335,15.383c1.008,1.7,2.726,2.985,3.425,4.887,1.131,3.068-.59,5.424-.255,8.438,1.4,12.527,20.527,7.675,27.566,3.777C43.112,26.373,50.58,12.769,42.156,6.294Z" fill="rgba(115,117,210,0.66)"/>
        </g>
      </g>
    </g>
    <rect id="Rectangle_783" data-name="Rectangle 783" width="31" height="34" transform="translate(8.5 3.5)" fill="#fff"/>
    <line id="Line_172" data-name="Line 172" x2="14" transform="translate(17.5 28.5)" fill="none" stroke="#39dca5" stroke-linecap="round" stroke-linejoin="round" stroke-miterlimit="10" stroke-width="2"/>
    <line id="Line_173" data-name="Line 173" x2="14" transform="translate(17.5 21.5)" fill="none" stroke="#39dca5" stroke-linecap="round" stroke-linejoin="round" stroke-miterlimit="10" stroke-width="2"/>
    <line id="Line_174" data-name="Line 174" x2="3" transform="translate(17.5 14.5)" fill="none" stroke="#39dca5" stroke-linecap="round" stroke-linejoin="round" stroke-miterlimit="10" stroke-width="2"/>
    <path id="Path_33079" data-name="Path 33079" d="M19.935.5H1.5V35.066H31.457V12.022Z" transform="translate(7.311 2.501)" fill="none" stroke="#37388f" stroke-linecap="round" stroke-linejoin="round" stroke-miterlimit="10" stroke-width="2"/>
    <path id="Path_33080" data-name="Path 33080" d="M9.5.5V12.022H21.022" transform="translate(17.746 2.501)" fill="none" stroke="#37388f" stroke-linecap="round" stroke-linejoin="round" stroke-miterlimit="10" stroke-width="2"/>
  </g>
</svg>
